# xmcd
#
# Track frame offsets:
#	150
#	10858
#	19882
#	27357
#	35603
#	49305
#	60615
#	71597
#	85445
#	97433
#	106646
#	121265
#	131355
#
# Disc length: 1861 seconds
#
# Revision: 1
# Processed by: cddbd v1.5.2PL0 Copyright (c) Steve Scherf et al.
# Submitted via: audiograbber 1.83.01
#
DISCID=af07430d
DTITLE=The Rolling Stones - Rare Gems, Demos and Outtakes
DYEAR=1964
DGENRE=R&B
TTITLE0=Go Home Girl
TTITLE1=My Only Girl
TTITLE2=It Should Be You
TTITLE3=Leave Me Alone
TTITLE4=Andrews Blues
TTITLE5=Some Things Just Stick On Your Mind
TTITLE6=Try A Little Harder
TTITLE7=Tell Me
TTITLE8=Blue Turns To Grey
TTITLE9=We Were Falling In Love
TTITLE10=Blues Jam
TTITLE11=As Time Goes By
TTITLE12=Not Fade Away
EXTD=
EXTT0=
EXTT1=
EXTT2=
EXTT3=
EXTT4=
EXTT5=
EXTT6=
EXTT7=
EXTT8=
EXTT9=
EXTT10=
EXTT11=
EXTT12=
PLAYORDER=
